<?xml version="1.0" encoding="utf-8"?>
<svg id="master-artboard" viewBox="0 0 1400 980" version="1.1" xmlns="http://www.w3.org/2000/svg" x="0px" y="0px" style="enable-background:new 0 0 1400 980;" width="1400px" height="980px" xmlns:xlink="http://www.w3.org/1999/xlink"><defs><path d="M311.01 372.59C312.82 373.6 313.46 375.89 312.45 377.69C300.68 398.72 267.21 458.52 255.44 479.54C254.43 481.35 252.15 481.99 250.34 480.98C249.69 480.61 250.99 481.35 250.34 480.98C248.53 479.97 247.89 477.68 248.9 475.88C260.67 454.85 294.14 395.05 305.91 374.03C306.92 372.22 309.2 371.58 311.01 372.59C311.66 372.96 310.36 372.22 311.01 372.59Z" id="b2mmkIo9Jl"/><path d="M269.42 329.48C270.43 331.29 269.79 333.57 267.98 334.58C246.81 346.46 186.57 380.25 165.4 392.12C163.59 393.13 161.3 392.49 160.29 390.68C159.92 390.03 160.66 391.34 160.29 390.68C159.28 388.88 159.92 386.59 161.73 385.58C182.9 373.7 243.14 339.92 264.31 328.04C266.12 327.03 268.41 327.67 269.42 329.48C269.79 330.13 269.05 328.83 269.42 329.48Z" id="f2fzcrV6RX"/><path d="M405.57 431.24C405.54 433.31 403.83 434.96 401.76 434.92C355.48 434.14 220.37 431.85 174.09 431.06C172.02 431.03 170.37 429.32 170.41 427.26C170.42 426.51 170.39 428.01 170.41 427.26C170.44 425.19 172.15 423.54 174.21 423.58C220.5 424.36 355.61 426.65 401.89 427.44C403.96 427.47 405.61 429.18 405.57 431.24C405.56 431.99 405.58 430.5 405.57 431.24Z" id="a6Kn6EmP5J"/><path d="M210.46 471.29C212.54 471.32 214.23 469.65 214.25 467.58C214.75 420.99 216.2 284.95 216.69 238.35C216.72 236.28 215.06 234.58 212.98 234.56C212.23 234.55 213.73 234.57 212.98 234.56C210.91 234.54 209.22 236.2 209.2 238.27C208.7 284.87 207.25 420.91 206.75 467.5C206.73 469.58 208.39 471.27 210.46 471.29C211.21 471.3 209.71 471.29 210.46 471.29Z" id="e3mhS8kFnc"/><path d="M164.19 224.7C166.11 225.47 167.04 227.66 166.27 229.58C156.69 253.39 129.36 321.35 119.79 345.16C119.01 347.08 116.83 348.01 114.91 347.24C114.21 346.96 115.6 347.52 114.91 347.24C112.99 346.47 112.06 344.28 112.83 342.36C122.4 318.55 149.73 250.59 159.31 226.78C160.08 224.86 162.27 223.93 164.19 224.7C164.88 224.98 163.49 224.42 164.19 224.7Z" id="m1u11uob4o"/><path d="M415.24 473.86C416 475.79 415.05 477.97 413.12 478.73C389.05 488.2 320.34 515.23 296.27 524.7C294.35 525.46 292.17 524.51 291.41 522.58C291.14 521.89 291.68 523.28 291.41 522.58C290.65 520.66 291.6 518.48 293.53 517.72C317.59 508.25 386.31 481.22 410.38 471.75C412.3 470.99 414.48 471.94 415.24 473.86C415.51 474.56 414.96 473.17 415.24 473.86Z" id="cgv3rVoX1"/><path d="M498.26 141.74C499.73 143.21 499.73 145.58 498.26 147.05C483.1 162.21 440.26 205.05 425.1 220.21C423.63 221.67 421.26 221.67 419.79 220.21C419.26 219.68 420.32 220.74 419.79 220.21C418.33 218.75 418.33 216.37 419.79 214.91C434.96 199.74 477.79 156.91 492.96 141.74C494.42 140.28 496.8 140.28 498.26 141.74C498.79 142.27 497.73 141.21 498.26 141.74Z" id="bkksM6ZAb"/><path d="M471.75 83.94C472.2 85.96 470.94 87.97 468.92 88.43C435.46 96.03 338.74 117.99 305.28 125.58C303.26 126.04 301.26 124.78 300.8 122.76C300.63 122.03 300.96 123.49 300.8 122.76C300.34 120.74 301.6 118.73 303.62 118.27C337.08 110.67 433.8 88.71 467.26 81.12C469.28 80.66 471.29 81.92 471.75 83.94C471.91 84.68 471.58 83.21 471.75 83.94Z" id="e12q31JJGQ"/><path d="M553.7 168.84C555.73 169.28 557.01 171.28 556.56 173.3C549.22 206.83 527.98 303.76 520.63 337.29C520.18 339.31 518.18 340.59 516.16 340.15C515.43 339.99 516.89 340.31 516.16 340.15C514.14 339.71 512.86 337.71 513.3 335.69C520.65 302.16 541.89 205.23 549.24 171.7C549.68 169.67 551.68 168.39 553.7 168.84C554.44 169 552.97 168.68 553.7 168.84Z" id="b8pdDsKxu"/><path d="M618.05 128.02C588.78 157.29 541.25 157.29 511.98 128.02C482.72 98.75 482.72 51.22 511.98 21.96C541.25 -7.31 588.78 -7.31 618.05 21.96C647.32 51.22 647.32 98.75 618.05 128.02Z" id="bws64o0VP"/><clipPath id="clipbTTI7VWv7"><use opacity="1" xlink:href="#bws64o0VP"/></clipPath><path d="M406.43 339.63C377.17 368.9 329.64 368.9 300.37 339.63C271.1 310.36 271.1 262.84 300.37 233.57C329.64 204.3 377.17 204.3 406.43 233.57C435.7 262.84 435.7 310.36 406.43 339.63Z" id="ayp9KgFG5"/><clipPath id="clipk1Tj1rsBa9"><use opacity="1" xlink:href="#ayp9KgFG5"/></clipPath><path d="M552.28 485.48C523.01 514.75 475.49 514.75 446.22 485.48C416.95 456.21 416.95 408.68 446.22 379.41C475.49 350.14 523.01 350.14 552.28 379.41C581.55 408.68 581.55 456.21 552.28 485.48Z" id="c7lSUqRDD"/><clipPath id="clipc5tOAnrFGc"><use opacity="1" xlink:href="#c7lSUqRDD"/></clipPath><path d="M260.6 193.79C231.33 223.06 183.8 223.06 154.53 193.79C125.26 164.53 125.26 117 154.53 87.73C183.8 58.46 231.33 58.46 260.6 87.73C289.87 117 289.87 164.53 260.6 193.79Z" id="c2OMVrNLNv"/><clipPath id="clipb21xwkdedh"><use opacity="1" xlink:href="#c2OMVrNLNv"/></clipPath><path d="M260.6 618.05C231.33 647.32 183.8 647.32 154.53 618.05C125.26 588.78 125.26 541.25 154.53 511.98C183.8 482.72 231.33 482.72 260.6 511.98C289.87 541.25 289.87 588.78 260.6 618.05Z" id="b14KY0M2Tf"/><clipPath id="clipc6kBYlBbFc"><use opacity="1" xlink:href="#b14KY0M2Tf"/></clipPath><path d="M128.02 485.47C98.75 514.74 51.22 514.74 21.95 485.47C-7.31 456.2 -7.31 408.67 21.95 379.41C51.22 350.14 98.75 350.14 128.02 379.41C157.29 408.67 157.29 456.2 128.02 485.47Z" id="b5FQoYpVb4"/><clipPath id="clipe1dSpYVFx1"><use opacity="1" xlink:href="#b5FQoYpVb4"/></clipPath></defs><rect id="ee-background" x="0" y="0" width="1400" height="980" style="fill: white; fill-opacity: 1; pointer-events: none;"/>


<path d="M 232.0262451171875 356.82623291015625 L 214.87625122070312 356.82623291015625 L 238.54624938964844 492.356201171875 L 241.97625732421875 492.356201171875 L 265.65625 356.82623291015625 L 248.49624633789062 356.82623291015625 L 248.49624633789062 300.55621337890625 L 362.40625 300.55621337890625 L 362.40625 356.82623291015625 L 348.6862487792969 356.82623291015625 L 294.1262512207031 567.4962158203125 L 169.2362518310547 567.4962158203125 L 114.68624877929688 356.82623291015625 L 100.95625305175781 356.82623291015625 L 100.95625305175781 300.55621337890625 L 232.0262451171875 300.55621337890625 L 232.0262451171875 356.82623291015625 ZM 480.1372985839844 318.05621337890625 L 556.3073120117188 300.55621337890625 L 622.52734375 300.55621337890625 L 622.52734375 511.2262268066406 L 651.3572998046875 511.2262268066406 L 651.3572998046875 567.4962158203125 L 490.43731689453125 567.4962158203125 L 490.43731689453125 511.2262268066406 L 523.3773193359375 511.2262268066406 L 523.3773193359375 356.82623291015625 L 480.1372985839844 356.82623291015625 L 480.1372985839844 318.05621337890625 ZM 675.5598754882812 511.2262268066406 L 729.0899047851562 511.2262268066406 L 729.0899047851562 567.4962158203125 L 675.5598754882812 567.4962158203125 L 675.5598754882812 511.2262268066406 ZM 754.6775512695312 514.9962158203125 C 772.517578125 499.90289306640625 788.8709106445312 485.549560546875 803.737548828125 471.93621826171875 C 818.604248046875 458.3295593261719 831.4142456054688 445.7495422363281 842.1675415039062 434.19622802734375 C 852.9208984375 422.64288330078125 861.2708740234375 412.462890625 867.217529296875 403.6562194824219 C 873.1642456054688 394.856201171875 876.1375732421875 387.70953369140625 876.1375732421875 382.2162170410156 C 876.1375732421875 373.29620361328125 874.1942138671875 366.8328857421875 870.3075561523438 362.82623291015625 C 866.4142456054688 358.82623291015625 860.5808715820312 356.82623291015625 852.8075561523438 356.82623291015625 C 845.027587890625 356.82623291015625 839.1942138671875 358.82623291015625 835.3075561523438 362.82623291015625 C 831.4208984375 366.8328857421875 829.4775390625 373.29620361328125 829.4775390625 382.2162170410156 L 829.4775390625 399.376220703125 L 760.8475341796875 399.376220703125 L 760.8475341796875 318.05621337890625 C 766.7942504882812 315.0828857421875 773.314208984375 312.3962097167969 780.4075317382812 309.9962158203125 C 787.5009155273438 307.58953857421875 795.8508911132812 305.2428894042969 805.4575805664062 302.9562072753906 C 815.064208984375 300.6695556640625 825.3009033203125 298.8962097167969 836.1675415039062 297.63623046875 C 847.027587890625 296.38287353515625 858.064208984375 295.7562255859375 869.277587890625 295.7562255859375 C 901.757568359375 295.7562255859375 926.0042114257812 302.3328857421875 942.017578125 315.4862060546875 C 958.0242309570312 328.63287353515625 966.027587890625 348.0162353515625 966.027587890625 373.63623046875 C 966.027587890625 387.58953857421875 962.767578125 400.91619873046875 956.24755859375 413.6162109375 C 949.7342529296875 426.3095703125 941.4442138671875 438.4295654296875 931.3775634765625 449.9762268066406 C 921.3109130859375 461.529541015625 910.2742309570312 472.3962097167969 898.267578125 482.57623291015625 C 886.2608642578125 492.7562255859375 874.767578125 502.30621337890625 863.7875366210938 511.2262268066406 L 905.6475830078125 511.2262268066406 L 905.6475830078125 491.66619873046875 L 972.5475463867188 491.66619873046875 L 972.5475463867188 567.4962158203125 L 754.6775512695312 567.4962158203125 L 754.6775512695312 514.9962158203125 ZM 991.9527587890625 511.2262268066406 L 1045.4827880859375 511.2262268066406 L 1045.4827880859375 567.4962158203125 L 991.9527587890625 567.4962158203125 L 991.9527587890625 511.2262268066406 ZM 1141.75048828125 405.20623779296875 L 1166.1104736328125 405.20623779296875 C 1174.8037109375 405.20623779296875 1181.037109375 403.1462097167969 1184.8104248046875 399.0262145996094 C 1188.583740234375 394.91290283203125 1190.470458984375 389.3095703125 1190.470458984375 382.2162170410156 C 1190.470458984375 373.29620361328125 1188.527099609375 366.8328857421875 1184.640380859375 362.82623291015625 C 1180.7470703125 358.82623291015625 1174.913818359375 356.82623291015625 1167.140380859375 356.82623291015625 C 1159.3604736328125 356.82623291015625 1153.527099609375 358.82623291015625 1149.640380859375 362.82623291015625 C 1145.7537841796875 366.8328857421875 1143.8104248046875 373.29620361328125 1143.8104248046875 382.2162170410156 L 1143.8104248046875 388.04620361328125 L 1075.180419921875 388.04620361328125 L 1075.180419921875 318.05621337890625 C 1079.3004150390625 315.76953125 1084.277099609375 313.3095703125 1090.1104736328125 310.67620849609375 C 1095.9437255859375 308.049560546875 1102.86376953125 305.5928955078125 1110.8704833984375 303.30621337890625 C 1118.8770751953125 301.01287841796875 1128.027099609375 299.1828918457031 1138.3204345703125 297.81622314453125 C 1148.61376953125 296.44287109375 1160.277099609375 295.7562255859375 1173.3104248046875 295.7562255859375 C 1205.563720703125 295.7562255859375 1229.9837646484375 302.3895568847656 1246.5704345703125 315.6562194824219 C 1263.150390625 328.9228820800781 1271.4404296875 347.6795654296875 1271.4404296875 371.92620849609375 C 1271.4404296875 379.6995544433594 1270.413818359375 386.61956787109375 1268.3604736328125 392.68621826171875 C 1266.3004150390625 398.7462158203125 1263.72705078125 404.0628662109375 1260.640380859375 408.63623046875 C 1257.547119140625 413.20953369140625 1254.11376953125 417.212890625 1250.3404541015625 420.6462097167969 C 1246.567138671875 424.07952880859375 1243.0804443359375 427.0528869628906 1239.88037109375 429.56622314453125 L 1239.88037109375 432.9962158203125 C 1243.5404052734375 435.28289794921875 1247.4837646484375 438.029541015625 1251.71044921875 441.2362060546875 C 1255.9437255859375 444.43621826171875 1259.890380859375 448.3228759765625 1263.5504150390625 452.8962097167969 C 1267.21044921875 457.46954345703125 1270.3004150390625 462.95953369140625 1272.8204345703125 469.3662109375 C 1275.333740234375 475.77288818359375 1276.5904541015625 483.2062072753906 1276.5904541015625 491.66619873046875 C 1276.5904541015625 503.7928771972656 1274.4171142578125 514.8295288085938 1270.0704345703125 524.7762451171875 C 1265.7237548828125 534.7295532226562 1259.1470947265625 543.2495727539062 1250.3404541015625 550.3362426757812 C 1241.5338134765625 557.4295654296875 1230.4404296875 562.8628540039062 1217.0604248046875 566.63623046875 C 1203.680419921875 570.4095458984375 1187.9537353515625 572.2962036132812 1169.8804931640625 572.2962036132812 C 1157.5338134765625 572.2962036132812 1146.4970703125 571.5528564453125 1136.7703857421875 570.0662231445312 C 1127.0504150390625 568.5795288085938 1118.3604736328125 566.7495727539062 1110.700439453125 564.5762329101562 C 1103.0338134765625 562.4028930664062 1096.2838134765625 559.8895263671875 1090.450439453125 557.0361938476562 C 1084.6170654296875 554.1762084960938 1079.527099609375 551.3728637695312 1075.180419921875 548.626220703125 L 1075.180419921875 476.2262268066406 L 1143.8104248046875 476.2262268066406 L 1143.8104248046875 485.8362121582031 C 1143.8104248046875 494.7562255859375 1145.7537841796875 501.21954345703125 1149.640380859375 505.2262268066406 C 1153.527099609375 509.2262268066406 1159.3604736328125 511.2262268066406 1167.140380859375 511.2262268066406 C 1174.913818359375 511.2262268066406 1180.7470703125 509.16619873046875 1184.640380859375 505.04620361328125 C 1188.527099609375 500.9328918457031 1190.470458984375 493.38623046875 1190.470458984375 482.4062194824219 C 1190.470458984375 473.9395446777344 1188.583740234375 467.5928955078125 1184.8104248046875 463.3662109375 C 1181.037109375 459.13287353515625 1174.9171142578125 457.0162048339844 1166.450439453125 457.0162048339844 L 1141.75048828125 457.0162048339844 L 1141.75048828125 405.20623779296875 Z" transform="matrix(1, 0, 0, 1, 21.301206588745117, -1.638554573059082)" style="fill: rgb(0, 101, 91); white-space: pre; color: rgb(51, 51, 51); fill-opacity: 1;"/></svg>